<svg xmlns="http://www.w3.org/2000/svg" viewBox="0 0 24 24" fill="currentColor"><path d="M12 .5C5.73.5.75 5.48.75 11.77c0 4.95 3.2 9.14 7.64 10.62.56.1.76-.24.76-.54 0-.26-.01-1.12-.02-2.03-3.11.68-3.77-1.5-3.77-1.5-.5-1.27-1.22-1.61-1.22-1.61-.99-.67.08-.66.08-.66 1.1.08 1.68 1.13 1.68 1.13.98 1.68 2.56 1.2 3.18.92.1-.72.38-1.2.69-1.48-2.48-.28-5.09-1.24-5.09-5.52 0-1.22.44-2.22 1.16-3.01-.12-.28-.5-1.41.11-2.94 0 0 .95-.3 3.11 1.15a10.8 10.8 0 0 1 2.84-.38c.96 0 1.93.13 2.84.38 2.16-1.45 3.11-1.15 3.11-1.15.61 1.53.23 2.66.11 2.94.72.79 1.16 1.79 1.16 3.01 0 4.29-2.62 5.24-5.11 5.52.39.34.73 1.01.73 2.04 0 1.48-.01 2.67-.01 3.03 0 .3.2.65.77.54C19.05 20.9 22.25 16.7 22.25 11.77 22.25 5.48 17.27.5 12 .5z"/></svg>