<svg xmlns="http://www.w3.org/2000/svg" viewBox="0 0 24 24" fill="currentColor"><path d="M22 5.92c-.66.29-1.38.5-2.13.59.77-.46 1.36-1.2 1.64-2.08-.72.42-1.52.73-2.37.9A3.7 3.7 0 0 0 12.6 7.3c0 .29.03.58.1.85-3.08-.15-5.8-1.63-7.62-3.88-.32.55-.5 1.2-.5 1.88 0 1.3.66 2.45 1.66 3.12-.61-.02-1.18-.19-1.68-.46v.05c0 1.82 1.3 3.34 3.02 3.68-.32.09-.66.13-1.01.13-.25 0-.5-.02-.75-.07.5 1.54 1.95 2.66 3.68 2.7A7.43 7.43 0 0 1 2 19.54 10.47 10.47 0 0 0 7.29 21c7.55 0 11.68-6.26 11.68-11.68 0-.18-.01-.35-.02-.53.8-.58 1.5-1.3 2.05-2.13-.73.33-1.5.56-2.31.66z"/></svg>